<svg xmlns="http://www.w3.org/2000/svg" style="display:none">
  <!--
    Brand marks for Kopten Deutschland.
    Two symbols share the same Coptic cross polygon, just with inverted colours.
    Referenced from headers/footers via <use href="…/brand.svg#mark-light"/>.
  -->
  <symbol id="mark-light" viewBox="0 0 32 32">
    <rect width="32" height="32" rx="6" fill="#7a1f1f"/>
    <g transform="translate(9.28,7.03) scale(0.1052)" fill="#c9a961">
      <polygon points="63.9,-38.34 80.94,-8.52 115.02,-8.52 89.46,21.3 89.46,59.64 127.8,59.64 157.62,34.08 157.62,68.16 187.44,85.2 157.62,102.24 157.62,136.32 127.8,110.76 89.46,110.76 89.46,149.1 115.02,178.92 80.94,178.92 63.9,208.74 46.86,178.92 12.78,178.92 38.34,149.1 38.34,110.76 0,110.76 -29.82,136.32 -29.82,102.24 -59.64,85.2 -29.82,68.16 -29.82,34.08 0,59.64 38.34,59.64 38.34,21.3 12.78,-8.52 46.86,-8.52"/>
    </g>
  </symbol>
  <symbol id="mark-dark" viewBox="0 0 32 32">
    <rect width="32" height="32" rx="6" fill="#c9a961"/>
    <g transform="translate(9.28,7.03) scale(0.1052)" fill="#7a1f1f">
      <polygon points="63.9,-38.34 80.94,-8.52 115.02,-8.52 89.46,21.3 89.46,59.64 127.8,59.64 157.62,34.08 157.62,68.16 187.44,85.2 157.62,102.24 157.62,136.32 127.8,110.76 89.46,110.76 89.46,149.1 115.02,178.92 80.94,178.92 63.9,208.74 46.86,178.92 12.78,178.92 38.34,149.1 38.34,110.76 0,110.76 -29.82,136.32 -29.82,102.24 -59.64,85.2 -29.82,68.16 -29.82,34.08 0,59.64 38.34,59.64 38.34,21.3 12.78,-8.52 46.86,-8.52"/>
    </g>
  </symbol>
</svg>
